<mxfile host="app.diagrams.net" agent="Mozilla/5.0 (Windows NT 10.0; Win64; x64) AppleWebKit/537.36 (KHTML, like Gecko) Chrome/140.0.0.0 Safari/537.36 Edg/140.0.0.0" version="28.2.1">
  <diagram name="Página-1" id="eJwrGdb6aDQEAl391zPp">
    <mxGraphModel dx="1477" dy="883" grid="1" gridSize="10" guides="1" tooltips="1" connect="1" arrows="1" fold="1" page="1" pageScale="1" pageWidth="827" pageHeight="1169" math="0" shadow="0">
      <root>
        <mxCell id="0" />
        <mxCell id="1" parent="0" />
        <mxCell id="0gLZgzNLC9lTg95In6b3-81" value="" style="group" vertex="1" connectable="0" parent="1">
          <mxGeometry y="1215.59" width="370" height="350" as="geometry" />
        </mxCell>
        <mxCell id="-ZTnhCfmlyASUnpzlvAA-58" value="Servicios Externos" style="verticalAlign=top;align=left;spacingTop=8;spacingLeft=2;spacingRight=12;shape=cube;size=10;direction=south;fontStyle=4;html=1;whiteSpace=wrap;container=0;fillColor=#d5e8d4;strokeColor=#82b366;fontSize=13;" parent="0gLZgzNLC9lTg95In6b3-81" vertex="1">
          <mxGeometry width="370" height="350" as="geometry" />
        </mxCell>
        <mxCell id="cPkvreHaspw4wVyvkUOK-43" value="Pasarela de Pagos" style="verticalAlign=top;align=left;spacingTop=8;spacingLeft=2;spacingRight=12;shape=cube;size=10;direction=south;fontStyle=4;html=1;whiteSpace=wrap;movable=1;resizable=1;rotatable=1;deletable=1;editable=1;locked=0;connectable=1;fillColor=#dae8fc;strokeColor=#6c8ebf;fontSize=13;" parent="0gLZgzNLC9lTg95In6b3-81" vertex="1">
          <mxGeometry x="14" y="59.12000000000012" width="179.95" height="255" as="geometry" />
        </mxCell>
        <mxCell id="0gLZgzNLC9lTg95In6b3-52" value="Servicios de&amp;nbsp;&lt;div&gt;Comunicación&lt;/div&gt;" style="verticalAlign=top;align=left;spacingTop=8;spacingLeft=2;spacingRight=12;shape=cube;size=10;direction=south;fontStyle=4;html=1;whiteSpace=wrap;fillColor=#dae8fc;strokeColor=#6c8ebf;fontSize=13;" vertex="1" parent="0gLZgzNLC9lTg95In6b3-81">
          <mxGeometry x="200" y="61.62000000000012" width="150" height="192.79" as="geometry" />
        </mxCell>
        <mxCell id="0gLZgzNLC9lTg95In6b3-50" value="&lt;span style=&quot;text-align: left;&quot;&gt;Servicio de&amp;nbsp;&lt;/span&gt;&lt;div&gt;&lt;span style=&quot;text-align: left;&quot;&gt;notificaciones&amp;nbsp;&lt;/span&gt;&lt;/div&gt;&lt;div&gt;&lt;span style=&quot;text-align: left;&quot;&gt;push&lt;/span&gt;&lt;/div&gt;" style="html=1;dropTarget=0;whiteSpace=wrap;fillColor=#dae8fc;strokeColor=#6c8ebf;fontSize=13;" vertex="1" parent="0gLZgzNLC9lTg95In6b3-81">
          <mxGeometry x="209.24438775510214" y="124.41000000000008" width="117.2811224489796" height="50" as="geometry" />
        </mxCell>
        <mxCell id="0gLZgzNLC9lTg95In6b3-51" value="" style="shape=module;jettyWidth=8;jettyHeight=4;fillColor=#dae8fc;strokeColor=#6c8ebf;fontSize=13;" vertex="1" parent="0gLZgzNLC9lTg95In6b3-50">
          <mxGeometry x="1" width="20" height="20" relative="1" as="geometry">
            <mxPoint x="-27" y="7" as="offset" />
          </mxGeometry>
        </mxCell>
        <mxCell id="0gLZgzNLC9lTg95In6b3-53" value="&lt;span style=&quot;text-align: left;&quot;&gt;Servicio de&amp;nbsp;&lt;/span&gt;&lt;div&gt;&lt;span style=&quot;text-align: left;&quot;&gt;notificaciones&amp;nbsp;&lt;/span&gt;&lt;/div&gt;&lt;div&gt;&lt;span style=&quot;text-align: left;&quot;&gt;push&lt;/span&gt;&lt;/div&gt;" style="html=1;dropTarget=0;whiteSpace=wrap;fillColor=#dae8fc;strokeColor=#6c8ebf;fontSize=13;" vertex="1" parent="0gLZgzNLC9lTg95In6b3-81">
          <mxGeometry x="209.24436734693882" y="187.67000000000007" width="117.2811224489796" height="50" as="geometry" />
        </mxCell>
        <mxCell id="0gLZgzNLC9lTg95In6b3-54" value="" style="shape=module;jettyWidth=8;jettyHeight=4;fillColor=#dae8fc;strokeColor=#6c8ebf;fontSize=13;" vertex="1" parent="0gLZgzNLC9lTg95In6b3-53">
          <mxGeometry x="1" width="20" height="20" relative="1" as="geometry">
            <mxPoint x="-27" y="7" as="offset" />
          </mxGeometry>
        </mxCell>
        <mxCell id="0gLZgzNLC9lTg95In6b3-55" value="&lt;span style=&quot;color: rgb(51, 51, 51);&quot;&gt;Métodos&amp;nbsp;&lt;/span&gt;&lt;div&gt;&lt;span style=&quot;color: rgb(51, 51, 51);&quot;&gt;de Pago&lt;/span&gt;&lt;/div&gt;" style="html=1;dropTarget=0;whiteSpace=wrap;fillColor=#dae8fc;strokeColor=#6c8ebf;fontSize=13;" vertex="1" parent="0gLZgzNLC9lTg95In6b3-81">
          <mxGeometry x="55.64999999999998" y="105.15000000000009" width="96.65" height="50" as="geometry" />
        </mxCell>
        <mxCell id="0gLZgzNLC9lTg95In6b3-56" value="" style="shape=module;jettyWidth=8;jettyHeight=4;fillColor=#dae8fc;strokeColor=#6c8ebf;fontSize=13;" vertex="1" parent="0gLZgzNLC9lTg95In6b3-55">
          <mxGeometry x="1" width="11" height="20" relative="1" as="geometry">
            <mxPoint x="-18" y="7" as="offset" />
          </mxGeometry>
        </mxCell>
        <mxCell id="0gLZgzNLC9lTg95In6b3-57" value="&lt;span style=&quot;color: rgb(51, 51, 51);&quot;&gt;MercadoPago&amp;nbsp;&lt;/span&gt;&lt;div&gt;&lt;span style=&quot;color: rgb(51, 51, 51);&quot;&gt;API&lt;/span&gt;&lt;/div&gt;" style="html=1;dropTarget=0;whiteSpace=wrap;fillColor=#dae8fc;strokeColor=#6c8ebf;fontSize=13;" vertex="1" parent="0gLZgzNLC9lTg95In6b3-81">
          <mxGeometry x="41.339999999999975" y="161.62000000000012" width="125.27" height="50" as="geometry" />
        </mxCell>
        <mxCell id="0gLZgzNLC9lTg95In6b3-58" value="" style="shape=module;jettyWidth=8;jettyHeight=4;fillColor=#dae8fc;strokeColor=#6c8ebf;fontSize=13;" vertex="1" parent="0gLZgzNLC9lTg95In6b3-57">
          <mxGeometry x="1" width="11" height="20" relative="1" as="geometry">
            <mxPoint x="-18" y="7" as="offset" />
          </mxGeometry>
        </mxCell>
        <mxCell id="0gLZgzNLC9lTg95In6b3-59" value="&lt;span style=&quot;color: rgb(51, 51, 51);&quot;&gt;Procesamiento&lt;/span&gt;&lt;div&gt;&lt;span style=&quot;color: rgb(51, 51, 51);&quot;&gt;de Transacciones&lt;/span&gt;&lt;/div&gt;" style="html=1;dropTarget=0;whiteSpace=wrap;fillColor=#dae8fc;strokeColor=#6c8ebf;fontSize=13;" vertex="1" parent="0gLZgzNLC9lTg95In6b3-81">
          <mxGeometry x="29.360734693877532" y="221.62000000000012" width="149.22448979591837" height="50" as="geometry" />
        </mxCell>
        <mxCell id="0gLZgzNLC9lTg95In6b3-60" value="" style="shape=module;jettyWidth=8;jettyHeight=4;fillColor=#dae8fc;strokeColor=#6c8ebf;fontSize=13;" vertex="1" parent="0gLZgzNLC9lTg95In6b3-59">
          <mxGeometry x="1" width="20" height="20" relative="1" as="geometry">
            <mxPoint x="-27" y="7" as="offset" />
          </mxGeometry>
        </mxCell>
        <mxCell id="0gLZgzNLC9lTg95In6b3-72" value="" style="group" vertex="1" connectable="0" parent="1">
          <mxGeometry y="290" width="820" height="1248.21" as="geometry" />
        </mxCell>
        <mxCell id="-ZTnhCfmlyASUnpzlvAA-40" value="&lt;font&gt;Servidor de Aplicación&lt;/font&gt;" style="verticalAlign=top;align=left;spacingTop=8;spacingLeft=2;spacingRight=12;shape=cube;size=10;direction=south;fontStyle=4;html=1;whiteSpace=wrap;container=0;fillColor=light-dark(#c5c1ec, #3b394a);strokeColor=#56517e;movable=1;resizable=1;rotatable=1;deletable=1;editable=1;locked=0;connectable=1;fontSize=13;" parent="0gLZgzNLC9lTg95In6b3-72" vertex="1">
          <mxGeometry width="820" height="760" as="geometry" />
        </mxCell>
        <mxCell id="0gLZgzNLC9lTg95In6b3-11" value="&lt;span style=&quot;text-wrap-mode: nowrap;&quot;&gt;Servidor de Archivos Estáticos&lt;/span&gt;" style="verticalAlign=top;align=left;spacingTop=8;spacingLeft=2;spacingRight=12;shape=cube;size=10;direction=south;fontStyle=4;html=1;whiteSpace=wrap;fillColor=#ffe6cc;strokeColor=#d79b00;fontSize=13;" vertex="1" parent="0gLZgzNLC9lTg95In6b3-72">
          <mxGeometry x="108.5" y="40" width="611.5" height="230" as="geometry" />
        </mxCell>
        <mxCell id="0gLZgzNLC9lTg95In6b3-8" value="&lt;span style=&quot;text-wrap-mode: nowrap;&quot;&gt;Aplicación Python&lt;/span&gt;" style="verticalAlign=top;align=left;spacingTop=8;spacingLeft=2;spacingRight=12;shape=cube;size=10;direction=south;fontStyle=4;html=1;whiteSpace=wrap;fillColor=#cce5ff;strokeColor=#36393d;fontSize=13;" vertex="1" parent="0gLZgzNLC9lTg95In6b3-72">
          <mxGeometry x="10" y="330" width="790" height="400" as="geometry" />
        </mxCell>
        <mxCell id="NIFE1Up2-B-W9ti-cjIK-39" value="" style="endArrow=classic;html=1;rounded=0;fontSize=13;" parent="0gLZgzNLC9lTg95In6b3-72" source="0gLZgzNLC9lTg95In6b3-30" target="0gLZgzNLC9lTg95In6b3-36" edge="1">
          <mxGeometry width="50" height="50" relative="1" as="geometry">
            <mxPoint x="515" y="500" as="sourcePoint" />
            <mxPoint x="635" y="580" as="targetPoint" />
          </mxGeometry>
        </mxCell>
        <mxCell id="NIFE1Up2-B-W9ti-cjIK-40" value="SQL/TCP 5432" style="edgeLabel;html=1;align=center;verticalAlign=middle;resizable=0;points=[];fontSize=13;" parent="NIFE1Up2-B-W9ti-cjIK-39" vertex="1" connectable="0">
          <mxGeometry x="0.0284" y="-1" relative="1" as="geometry">
            <mxPoint x="3" y="-2" as="offset" />
          </mxGeometry>
        </mxCell>
        <mxCell id="NIFE1Up2-B-W9ti-cjIK-35" value="" style="endArrow=classic;html=1;rounded=0;fontSize=13;" parent="0gLZgzNLC9lTg95In6b3-72" source="0gLZgzNLC9lTg95In6b3-30" target="0gLZgzNLC9lTg95In6b3-32" edge="1">
          <mxGeometry width="50" height="50" relative="1" as="geometry">
            <mxPoint x="400.57934782608686" y="500" as="sourcePoint" />
            <mxPoint x="410" y="580" as="targetPoint" />
          </mxGeometry>
        </mxCell>
        <mxCell id="NIFE1Up2-B-W9ti-cjIK-36" value="SQL/TCP 5432" style="edgeLabel;html=1;align=center;verticalAlign=middle;resizable=0;points=[];fontSize=13;" parent="NIFE1Up2-B-W9ti-cjIK-35" vertex="1" connectable="0">
          <mxGeometry x="0.0284" y="-1" relative="1" as="geometry">
            <mxPoint x="-1" as="offset" />
          </mxGeometry>
        </mxCell>
        <mxCell id="NIFE1Up2-B-W9ti-cjIK-33" value="" style="endArrow=classic;html=1;rounded=0;fontSize=13;" parent="0gLZgzNLC9lTg95In6b3-72" source="0gLZgzNLC9lTg95In6b3-30" target="0gLZgzNLC9lTg95In6b3-38" edge="1">
          <mxGeometry width="50" height="50" relative="1" as="geometry">
            <mxPoint x="347.2854347826087" y="500" as="sourcePoint" />
            <mxPoint x="303.4121739130435" y="580" as="targetPoint" />
          </mxGeometry>
        </mxCell>
        <mxCell id="NIFE1Up2-B-W9ti-cjIK-34" value="SQL/TCP 5432" style="edgeLabel;html=1;align=center;verticalAlign=middle;resizable=0;points=[];fontSize=13;" parent="NIFE1Up2-B-W9ti-cjIK-33" vertex="1" connectable="0">
          <mxGeometry x="0.0284" y="-1" relative="1" as="geometry">
            <mxPoint x="8" y="-24" as="offset" />
          </mxGeometry>
        </mxCell>
        <mxCell id="NIFE1Up2-B-W9ti-cjIK-31" value="" style="endArrow=classic;html=1;rounded=0;fontSize=13;" parent="0gLZgzNLC9lTg95In6b3-72" source="0gLZgzNLC9lTg95In6b3-30" target="0gLZgzNLC9lTg95In6b3-40" edge="1">
          <mxGeometry width="50" height="50" relative="1" as="geometry">
            <mxPoint x="289" y="500" as="sourcePoint" />
            <mxPoint x="175" y="588.4166666666667" as="targetPoint" />
          </mxGeometry>
        </mxCell>
        <mxCell id="NIFE1Up2-B-W9ti-cjIK-32" value="SQL/TCP 5432" style="edgeLabel;html=1;align=center;verticalAlign=middle;resizable=0;points=[];fontSize=13;" parent="NIFE1Up2-B-W9ti-cjIK-31" vertex="1" connectable="0">
          <mxGeometry x="0.0284" y="-1" relative="1" as="geometry">
            <mxPoint x="1" y="-12" as="offset" />
          </mxGeometry>
        </mxCell>
        <mxCell id="-ZTnhCfmlyASUnpzlvAA-53" value="Aplicaciones Web" style="verticalAlign=top;align=center;spacingTop=8;spacingLeft=2;spacingRight=12;shape=cube;size=10;direction=south;fontStyle=4;html=1;whiteSpace=wrap;movable=1;resizable=1;rotatable=1;deletable=1;editable=1;locked=0;connectable=1;container=0;fillColor=#dae8fc;strokeColor=#6c8ebf;fontSize=13;" parent="0gLZgzNLC9lTg95In6b3-72" vertex="1">
          <mxGeometry x="140" y="90" width="422.36" height="150" as="geometry" />
        </mxCell>
        <mxCell id="NIFE1Up2-B-W9ti-cjIK-26" value="" style="endArrow=classic;html=1;rounded=0;fontSize=13;entryX=-0.004;entryY=0.558;entryDx=0;entryDy=0;entryPerimeter=0;" parent="0gLZgzNLC9lTg95In6b3-72" source="0gLZgzNLC9lTg95In6b3-18" target="0gLZgzNLC9lTg95In6b3-8" edge="1">
          <mxGeometry width="50" height="50" relative="1" as="geometry">
            <mxPoint x="437" y="290" as="sourcePoint" />
            <mxPoint x="390.35733115555263" y="350" as="targetPoint" />
          </mxGeometry>
        </mxCell>
        <mxCell id="NIFE1Up2-B-W9ti-cjIK-27" value="&lt;div&gt;HTTP:8000&lt;/div&gt;&lt;div&gt;&lt;font style=&quot;font-size: 10px;&quot;&gt;Aplicación Desktop Flet&lt;/font&gt;&lt;/div&gt;" style="edgeLabel;html=1;align=center;verticalAlign=middle;resizable=0;points=[];fontSize=13;" parent="NIFE1Up2-B-W9ti-cjIK-26" vertex="1" connectable="0">
          <mxGeometry x="0.0284" y="-1" relative="1" as="geometry">
            <mxPoint x="1" y="-3" as="offset" />
          </mxGeometry>
        </mxCell>
        <mxCell id="0gLZgzNLC9lTg95In6b3-12" value="Python&amp;nbsp;&lt;div&gt;Runtime&lt;/div&gt;" style="html=1;dropTarget=0;whiteSpace=wrap;fillColor=#ffcc99;strokeColor=#36393d;fontSize=13;" vertex="1" parent="0gLZgzNLC9lTg95In6b3-72">
          <mxGeometry x="33" y="380" width="107" height="44.46" as="geometry" />
        </mxCell>
        <mxCell id="0gLZgzNLC9lTg95In6b3-13" value="" style="shape=module;jettyWidth=8;jettyHeight=4;fontSize=13;" vertex="1" parent="0gLZgzNLC9lTg95In6b3-12">
          <mxGeometry x="1" width="20" height="20" relative="1" as="geometry">
            <mxPoint x="-27" y="7" as="offset" />
          </mxGeometry>
        </mxCell>
        <mxCell id="0gLZgzNLC9lTg95In6b3-16" value="&lt;span style=&quot;color: rgb(51, 51, 51);&quot;&gt;Aplicación Web Cliente&lt;/span&gt;" style="html=1;dropTarget=0;whiteSpace=wrap;fillColor=#b0e3e6;strokeColor=#0e8088;fontSize=13;align=center;" vertex="1" parent="0gLZgzNLC9lTg95In6b3-72">
          <mxGeometry x="160" y="145" width="117" height="60" as="geometry" />
        </mxCell>
        <mxCell id="0gLZgzNLC9lTg95In6b3-17" value="" style="shape=module;jettyWidth=8;jettyHeight=4;fillColor=#b0e3e6;strokeColor=#0e8088;fontSize=13;" vertex="1" parent="0gLZgzNLC9lTg95In6b3-16">
          <mxGeometry x="1" width="21" height="20" relative="1" as="geometry">
            <mxPoint x="-27" y="31" as="offset" />
          </mxGeometry>
        </mxCell>
        <mxCell id="0gLZgzNLC9lTg95In6b3-18" value="&lt;span style=&quot;color: rgb(51, 51, 51);&quot;&gt;Dashboard de Vendedor&lt;/span&gt;" style="html=1;dropTarget=0;whiteSpace=wrap;fillColor=#b0e3e6;strokeColor=#0e8088;fontSize=13;" vertex="1" parent="0gLZgzNLC9lTg95In6b3-72">
          <mxGeometry x="286.18" y="155.54" width="130" height="44.46" as="geometry" />
        </mxCell>
        <mxCell id="0gLZgzNLC9lTg95In6b3-19" value="" style="shape=module;jettyWidth=8;jettyHeight=4;fillColor=#b0e3e6;strokeColor=#0e8088;fontSize=13;" vertex="1" parent="0gLZgzNLC9lTg95In6b3-18">
          <mxGeometry x="1" width="20" height="20" relative="1" as="geometry">
            <mxPoint x="-27" y="20" as="offset" />
          </mxGeometry>
        </mxCell>
        <mxCell id="0gLZgzNLC9lTg95In6b3-20" value="&lt;span style=&quot;color: rgb(51, 51, 51);&quot;&gt;Panel de Administración&lt;/span&gt;" style="html=1;dropTarget=0;whiteSpace=wrap;fillColor=#b0e3e6;strokeColor=#0e8088;fontSize=13;" vertex="1" parent="0gLZgzNLC9lTg95In6b3-72">
          <mxGeometry x="430" y="132.76999999999998" width="107" height="67.23" as="geometry" />
        </mxCell>
        <mxCell id="0gLZgzNLC9lTg95In6b3-21" value="" style="shape=module;jettyWidth=8;jettyHeight=4;fillColor=#b0e3e6;strokeColor=#0e8088;fontSize=13;" vertex="1" parent="0gLZgzNLC9lTg95In6b3-20">
          <mxGeometry x="1" width="20" height="20" relative="1" as="geometry">
            <mxPoint x="-27" y="7" as="offset" />
          </mxGeometry>
        </mxCell>
        <mxCell id="0gLZgzNLC9lTg95In6b3-6" value="" style="curved=1;endArrow=classic;html=1;rounded=0;fontSize=13;" edge="1" parent="0gLZgzNLC9lTg95In6b3-72" source="0gLZgzNLC9lTg95In6b3-30" target="0gLZgzNLC9lTg95In6b3-30">
          <mxGeometry width="50" height="50" relative="1" as="geometry">
            <mxPoint x="515" y="440" as="sourcePoint" />
            <mxPoint x="615.78" y="400" as="targetPoint" />
            <Array as="points">
              <mxPoint x="615.78" y="450" />
              <mxPoint x="565.78" y="400" />
            </Array>
          </mxGeometry>
        </mxCell>
        <mxCell id="0gLZgzNLC9lTg95In6b3-7" value="SQL/TCP 5432" style="edgeLabel;html=1;align=center;verticalAlign=middle;resizable=0;points=[];fontSize=13;" vertex="1" connectable="0" parent="0gLZgzNLC9lTg95In6b3-6">
          <mxGeometry x="0.1409" y="3" relative="1" as="geometry">
            <mxPoint as="offset" />
          </mxGeometry>
        </mxCell>
        <mxCell id="0gLZgzNLC9lTg95In6b3-30" value="&lt;span style=&quot;text-decoration-line: underline;&quot;&gt;Servicio de&lt;/span&gt;&lt;div&gt;&lt;span style=&quot;text-decoration-line: underline;&quot;&gt;&amp;nbsp;Autenticación JWT&lt;/span&gt;&lt;/div&gt;" style="html=1;dropTarget=0;whiteSpace=wrap;fillColor=#cdeb8b;strokeColor=#36393d;fontSize=13;" vertex="1" parent="0gLZgzNLC9lTg95In6b3-72">
          <mxGeometry x="327.78" y="370" width="187.22" height="100" as="geometry" />
        </mxCell>
        <mxCell id="0gLZgzNLC9lTg95In6b3-31" value="" style="shape=module;jettyWidth=8;jettyHeight=4;fontSize=13;" vertex="1" parent="0gLZgzNLC9lTg95In6b3-30">
          <mxGeometry x="1" width="20" height="20" relative="1" as="geometry">
            <mxPoint x="-27" y="7" as="offset" />
          </mxGeometry>
        </mxCell>
        <mxCell id="0gLZgzNLC9lTg95In6b3-32" value="Servicio de Carrito" style="html=1;dropTarget=0;whiteSpace=wrap;fillColor=#cdeb8b;strokeColor=#36393d;fontSize=13;" vertex="1" parent="0gLZgzNLC9lTg95In6b3-72">
          <mxGeometry x="375" y="605" width="115" height="90" as="geometry" />
        </mxCell>
        <mxCell id="0gLZgzNLC9lTg95In6b3-33" value="" style="shape=module;jettyWidth=8;jettyHeight=4;fillColor=#cce5ff;strokeColor=#36393d;fontSize=13;" vertex="1" parent="0gLZgzNLC9lTg95In6b3-32">
          <mxGeometry x="1" width="20" height="20" relative="1" as="geometry">
            <mxPoint x="-27" y="7" as="offset" />
          </mxGeometry>
        </mxCell>
        <mxCell id="0gLZgzNLC9lTg95In6b3-34" value="Servicio de Productos" style="html=1;dropTarget=0;whiteSpace=wrap;fillColor=#cdeb8b;strokeColor=#36393d;fontSize=13;" vertex="1" parent="0gLZgzNLC9lTg95In6b3-72">
          <mxGeometry x="515" y="605" width="115" height="90" as="geometry" />
        </mxCell>
        <mxCell id="0gLZgzNLC9lTg95In6b3-35" value="" style="shape=module;jettyWidth=8;jettyHeight=4;fillColor=#cce5ff;strokeColor=#36393d;fontSize=13;" vertex="1" parent="0gLZgzNLC9lTg95In6b3-34">
          <mxGeometry x="1" width="20" height="20" relative="1" as="geometry">
            <mxPoint x="-27" y="7" as="offset" />
          </mxGeometry>
        </mxCell>
        <mxCell id="0gLZgzNLC9lTg95In6b3-36" value="Servicio de Usuarios" style="html=1;dropTarget=0;whiteSpace=wrap;fillColor=#cdeb8b;strokeColor=#36393d;fontSize=13;" vertex="1" parent="0gLZgzNLC9lTg95In6b3-72">
          <mxGeometry x="645" y="605" width="100" height="90" as="geometry" />
        </mxCell>
        <mxCell id="0gLZgzNLC9lTg95In6b3-37" value="" style="shape=module;jettyWidth=8;jettyHeight=4;fillColor=#cce5ff;strokeColor=#36393d;fontSize=13;" vertex="1" parent="0gLZgzNLC9lTg95In6b3-36">
          <mxGeometry x="1" width="20" height="20" relative="1" as="geometry">
            <mxPoint x="-27" y="7" as="offset" />
          </mxGeometry>
        </mxCell>
        <mxCell id="0gLZgzNLC9lTg95In6b3-38" value="Servicio de Órdenes" style="html=1;dropTarget=0;whiteSpace=wrap;fillColor=#cdeb8b;strokeColor=#36393d;fontSize=13;" vertex="1" parent="0gLZgzNLC9lTg95In6b3-72">
          <mxGeometry x="225" y="605" width="120" height="90" as="geometry" />
        </mxCell>
        <mxCell id="0gLZgzNLC9lTg95In6b3-39" value="" style="shape=module;jettyWidth=8;jettyHeight=4;fillColor=#cce5ff;strokeColor=#36393d;fontSize=13;" vertex="1" parent="0gLZgzNLC9lTg95In6b3-38">
          <mxGeometry x="1" width="20" height="20" relative="1" as="geometry">
            <mxPoint x="-27" y="7" as="offset" />
          </mxGeometry>
        </mxCell>
        <mxCell id="0gLZgzNLC9lTg95In6b3-40" value="Servicio de Pagos" style="html=1;dropTarget=0;whiteSpace=wrap;fillColor=#cdeb8b;strokeColor=#36393d;fontSize=13;" vertex="1" parent="0gLZgzNLC9lTg95In6b3-72">
          <mxGeometry x="65" y="605" width="130" height="90" as="geometry" />
        </mxCell>
        <mxCell id="0gLZgzNLC9lTg95In6b3-41" value="" style="shape=module;jettyWidth=8;jettyHeight=4;fillColor=#cce5ff;strokeColor=#36393d;fontSize=13;" vertex="1" parent="0gLZgzNLC9lTg95In6b3-40">
          <mxGeometry x="1" width="20" height="20" relative="1" as="geometry">
            <mxPoint x="-27" y="7" as="offset" />
          </mxGeometry>
        </mxCell>
        <mxCell id="0gLZgzNLC9lTg95In6b3-42" value="" style="endArrow=classic;html=1;rounded=0;fontSize=13;" edge="1" parent="0gLZgzNLC9lTg95In6b3-72" source="0gLZgzNLC9lTg95In6b3-30" target="0gLZgzNLC9lTg95In6b3-34">
          <mxGeometry width="50" height="50" relative="1" as="geometry">
            <mxPoint x="465" y="540" as="sourcePoint" />
            <mxPoint x="638" y="680" as="targetPoint" />
          </mxGeometry>
        </mxCell>
        <mxCell id="0gLZgzNLC9lTg95In6b3-43" value="SQL/TCP 5432" style="edgeLabel;html=1;align=center;verticalAlign=middle;resizable=0;points=[];fontSize=13;" vertex="1" connectable="0" parent="0gLZgzNLC9lTg95In6b3-42">
          <mxGeometry x="0.0284" y="-1" relative="1" as="geometry">
            <mxPoint x="-10" y="-25" as="offset" />
          </mxGeometry>
        </mxCell>
        <mxCell id="0gLZgzNLC9lTg95In6b3-66" value="&lt;span style=&quot;color: rgb(51, 51, 51);&quot;&gt;Express Static Server&lt;/span&gt;" style="html=1;dropTarget=0;whiteSpace=wrap;fillColor=#b0e3e6;strokeColor=#0e8088;fontSize=13;" vertex="1" parent="0gLZgzNLC9lTg95In6b3-72">
          <mxGeometry x="584" y="125" width="107" height="67.23" as="geometry" />
        </mxCell>
        <mxCell id="0gLZgzNLC9lTg95In6b3-67" value="" style="shape=module;jettyWidth=8;jettyHeight=4;fillColor=#b0e3e6;strokeColor=#0e8088;fontSize=13;" vertex="1" parent="0gLZgzNLC9lTg95In6b3-66">
          <mxGeometry x="1" width="20" height="20" relative="1" as="geometry">
            <mxPoint x="-27" y="40" as="offset" />
          </mxGeometry>
        </mxCell>
        <mxCell id="0gLZgzNLC9lTg95In6b3-74" value="" style="endArrow=classic;html=1;rounded=0;fontSize=13;entryX=0.007;entryY=0.737;entryDx=0;entryDy=0;entryPerimeter=0;" edge="1" parent="0gLZgzNLC9lTg95In6b3-72" source="0gLZgzNLC9lTg95In6b3-16" target="0gLZgzNLC9lTg95In6b3-8">
          <mxGeometry width="50" height="50" relative="1" as="geometry">
            <mxPoint x="370" y="200" as="sourcePoint" />
            <mxPoint x="382" y="334" as="targetPoint" />
          </mxGeometry>
        </mxCell>
        <mxCell id="0gLZgzNLC9lTg95In6b3-75" value="&lt;div&gt;HTTP:8000&lt;/div&gt;&lt;div&gt;&lt;font style=&quot;font-size: 10px;&quot;&gt;Aplicación Desktop Flet&lt;/font&gt;&lt;/div&gt;" style="edgeLabel;html=1;align=center;verticalAlign=middle;resizable=0;points=[];fontSize=13;" vertex="1" connectable="0" parent="0gLZgzNLC9lTg95In6b3-74">
          <mxGeometry x="0.0284" y="-1" relative="1" as="geometry">
            <mxPoint x="1" y="-3" as="offset" />
          </mxGeometry>
        </mxCell>
        <mxCell id="0gLZgzNLC9lTg95In6b3-76" value="" style="endArrow=classic;html=1;rounded=0;fontSize=13;entryX=0.007;entryY=0.396;entryDx=0;entryDy=0;entryPerimeter=0;" edge="1" parent="0gLZgzNLC9lTg95In6b3-72" source="0gLZgzNLC9lTg95In6b3-20" target="0gLZgzNLC9lTg95In6b3-8">
          <mxGeometry width="50" height="50" relative="1" as="geometry">
            <mxPoint x="430" y="210" as="sourcePoint" />
            <mxPoint x="442" y="344" as="targetPoint" />
          </mxGeometry>
        </mxCell>
        <mxCell id="0gLZgzNLC9lTg95In6b3-77" value="&lt;div&gt;HTTP:8000&lt;/div&gt;&lt;div&gt;&lt;font style=&quot;font-size: 10px;&quot;&gt;Aplicación Desktop Flet&lt;/font&gt;&lt;/div&gt;" style="edgeLabel;html=1;align=center;verticalAlign=middle;resizable=0;points=[];fontSize=13;" vertex="1" connectable="0" parent="0gLZgzNLC9lTg95In6b3-76">
          <mxGeometry x="0.0284" y="-1" relative="1" as="geometry">
            <mxPoint x="1" y="-3" as="offset" />
          </mxGeometry>
        </mxCell>
        <mxCell id="0gLZgzNLC9lTg95In6b3-82" value="" style="group" vertex="1" connectable="0" parent="0gLZgzNLC9lTg95In6b3-72">
          <mxGeometry x="390" y="920" width="420" height="328.21000000000004" as="geometry" />
        </mxCell>
        <mxCell id="-ZTnhCfmlyASUnpzlvAA-60" value="Servicios de base de datos" style="verticalAlign=top;align=right;spacingTop=8;spacingLeft=2;spacingRight=12;shape=cube;size=10;direction=south;fontStyle=4;html=1;whiteSpace=wrap;container=0;fillColor=#ffcc99;strokeColor=#36393d;fontSize=13;" parent="0gLZgzNLC9lTg95In6b3-82" vertex="1">
          <mxGeometry width="420" height="328.21" as="geometry" />
        </mxCell>
        <mxCell id="-ZTnhCfmlyASUnpzlvAA-63" value="" style="group;fillColor=#cce5ff;strokeColor=#36393d;fontSize=13;" parent="0gLZgzNLC9lTg95In6b3-82" vertex="1" connectable="0">
          <mxGeometry x="9.778481012658176" y="56.587931034482835" width="185.86708860759495" height="260.3044827586207" as="geometry" />
        </mxCell>
        <mxCell id="-ZTnhCfmlyASUnpzlvAA-64" value="Almacenamiento de archivos JSON" style="verticalAlign=top;align=center;spacingTop=8;spacingLeft=2;spacingRight=12;shape=cube;size=10;direction=south;fontStyle=4;html=1;whiteSpace=wrap;movable=1;resizable=1;rotatable=1;deletable=1;editable=1;locked=0;connectable=1;container=0;fillColor=#cce5ff;strokeColor=#36393d;fontSize=13;" parent="-ZTnhCfmlyASUnpzlvAA-63" vertex="1">
          <mxGeometry width="185.86708860759498" height="260.3044827586207" as="geometry" />
        </mxCell>
        <mxCell id="NIFE1Up2-B-W9ti-cjIK-56" value="&lt;font&gt;Base de Datos&lt;span style=&quot;color: rgb(97, 175, 239);&quot; class=&quot;token&quot;&gt;:&lt;/span&gt;&lt;br&gt;- users&lt;br&gt;- products  &lt;br&gt;- orders&lt;br&gt;- order_items&lt;br&gt;- categories&lt;/font&gt;&lt;div&gt;&lt;font&gt;&lt;div&gt;-payments&lt;/div&gt;&lt;div&gt;-user_sessions&amp;nbsp;&lt;/div&gt;&lt;div&gt;-product_images&lt;/div&gt;&lt;div&gt;-categories_products&amp;nbsp;&lt;/div&gt;&lt;div&gt;-reviews&amp;nbsp;&lt;/div&gt;&lt;div&gt;-inventory&amp;nbsp;&lt;/div&gt;&lt;/font&gt;&lt;/div&gt;" style="text;html=1;align=center;verticalAlign=middle;whiteSpace=wrap;rounded=0;fillColor=#cce5ff;strokeColor=#36393d;fontSize=13;" parent="-ZTnhCfmlyASUnpzlvAA-63" vertex="1">
          <mxGeometry x="9.493670886075948" y="45.2703448275862" width="161.39240506329116" height="203.71655172413793" as="geometry" />
        </mxCell>
        <mxCell id="-ZTnhCfmlyASUnpzlvAA-104" value="" style="group;fillColor=#d5e8d4;strokeColor=#82b366;fontSize=13;" parent="0gLZgzNLC9lTg95In6b3-82" vertex="1" connectable="0">
          <mxGeometry x="205.4387755102041" y="56.58999999999992" width="198.64285714285717" height="237.67" as="geometry" />
        </mxCell>
        <mxCell id="-ZTnhCfmlyASUnpzlvAA-105" value="Servicio de&amp;nbsp;&lt;div&gt;Almacenamiento de Archivos&lt;/div&gt;" style="verticalAlign=top;align=left;spacingTop=8;spacingLeft=2;spacingRight=12;shape=cube;size=10;direction=south;fontStyle=4;html=1;whiteSpace=wrap;movable=1;resizable=1;rotatable=1;deletable=1;editable=1;locked=0;connectable=1;container=0;fillColor=#cce5ff;strokeColor=#36393d;fontSize=13;" parent="-ZTnhCfmlyASUnpzlvAA-104" vertex="1">
          <mxGeometry width="198.64285714285714" height="237.67" as="geometry" />
        </mxCell>
        <mxCell id="0gLZgzNLC9lTg95In6b3-44" value="Imagenes" style="html=1;dropTarget=0;whiteSpace=wrap;fillColor=#d5e8d4;strokeColor=#82b366;fontSize=13;" vertex="1" parent="-ZTnhCfmlyASUnpzlvAA-104">
          <mxGeometry x="12.667695727386795" y="135.81142857142854" width="95.89791252260397" height="67.90571428571427" as="geometry" />
        </mxCell>
        <mxCell id="0gLZgzNLC9lTg95In6b3-45" value="" style="shape=module;jettyWidth=8;jettyHeight=4;fillColor=#d5e8d4;strokeColor=#82b366;fontSize=13;" vertex="1" parent="0gLZgzNLC9lTg95In6b3-44">
          <mxGeometry x="1" width="20" height="20" relative="1" as="geometry">
            <mxPoint x="-27" y="7" as="offset" />
          </mxGeometry>
        </mxCell>
        <mxCell id="0gLZgzNLC9lTg95In6b3-48" value="Documentos" style="html=1;dropTarget=0;whiteSpace=wrap;fillColor=#d5e8d4;strokeColor=#82b366;fontSize=13;" vertex="1" parent="-ZTnhCfmlyASUnpzlvAA-104">
          <mxGeometry x="12.667695727386795" y="54.410502712403925" width="95.89791252260397" height="67.90571428571427" as="geometry" />
        </mxCell>
        <mxCell id="0gLZgzNLC9lTg95In6b3-49" value="" style="shape=module;jettyWidth=8;jettyHeight=4;fillColor=#d5e8d4;strokeColor=#82b366;fontSize=13;" vertex="1" parent="0gLZgzNLC9lTg95In6b3-48">
          <mxGeometry x="1" width="20" height="20" relative="1" as="geometry">
            <mxPoint x="-27" y="7" as="offset" />
          </mxGeometry>
        </mxCell>
        <mxCell id="NIFE1Up2-B-W9ti-cjIK-47" value="" style="endArrow=classic;html=1;rounded=0;fontSize=13;" parent="0gLZgzNLC9lTg95In6b3-72" source="0gLZgzNLC9lTg95In6b3-34" target="-ZTnhCfmlyASUnpzlvAA-64" edge="1">
          <mxGeometry width="50" height="50" relative="1" as="geometry">
            <mxPoint x="543.2843231623651" y="854.9136842105263" as="sourcePoint" />
            <mxPoint x="525.5" y="1120" as="targetPoint" />
          </mxGeometry>
        </mxCell>
        <mxCell id="0gLZgzNLC9lTg95In6b3-69" value="&lt;div&gt;&lt;font style=&quot;font-size: 10px;&quot;&gt;&lt;font style=&quot;font-size: 9px;&quot;&gt;&lt;span style=&quot;font-size: x-small;&quot;&gt;SQL/TCP 5432&lt;/span&gt;&amp;nbsp;&lt;/font&gt;&lt;/font&gt;&lt;/div&gt;&lt;font style=&quot;font-size: 10px;&quot;&gt;Consultas de&amp;nbsp;&lt;/font&gt;&lt;div style=&quot;&quot;&gt;&lt;span style=&quot;color: light-dark(rgb(0, 0, 0), rgb(255, 255, 255));&quot;&gt;&lt;font style=&quot;font-size: 10px;&quot;&gt;productos&lt;/font&gt;&lt;/span&gt;&lt;/div&gt;" style="edgeLabel;html=1;align=center;verticalAlign=middle;resizable=0;points=[];" vertex="1" connectable="0" parent="NIFE1Up2-B-W9ti-cjIK-47">
          <mxGeometry x="-0.0364" y="-1" relative="1" as="geometry">
            <mxPoint as="offset" />
          </mxGeometry>
        </mxCell>
        <mxCell id="NIFE1Up2-B-W9ti-cjIK-49" value="" style="endArrow=classic;html=1;rounded=0;fontSize=13;" parent="0gLZgzNLC9lTg95In6b3-72" source="0gLZgzNLC9lTg95In6b3-32" target="-ZTnhCfmlyASUnpzlvAA-64" edge="1">
          <mxGeometry width="50" height="50" relative="1" as="geometry">
            <mxPoint x="414.71185185185186" y="890" as="sourcePoint" />
            <mxPoint x="509" y="1155" as="targetPoint" />
          </mxGeometry>
        </mxCell>
        <mxCell id="NIFE1Up2-B-W9ti-cjIK-50" value="&lt;font style=&quot;font-size: 9px;&quot;&gt;&lt;span style=&quot;font-size: x-small;&quot;&gt;SQL/TCP 5432&lt;/span&gt;&amp;nbsp;&lt;/font&gt;&lt;div&gt;&lt;font style=&quot;font-size: 9px;&quot;&gt;Almacenamiento&amp;nbsp;&lt;/font&gt;&lt;div&gt;&lt;font style=&quot;font-size: 9px;&quot;&gt;de&amp;nbsp;&lt;span style=&quot;background-color: light-dark(#ffffff, var(--ge-dark-color, #121212)); color: light-dark(rgb(0, 0, 0), rgb(255, 255, 255));&quot;&gt;carrito&lt;/span&gt;&lt;/font&gt;&lt;/div&gt;&lt;/div&gt;" style="edgeLabel;html=1;align=center;verticalAlign=middle;resizable=0;points=[];fontSize=13;" parent="NIFE1Up2-B-W9ti-cjIK-49" vertex="1" connectable="0">
          <mxGeometry x="0.0284" y="-1" relative="1" as="geometry">
            <mxPoint x="1" y="-12" as="offset" />
          </mxGeometry>
        </mxCell>
        <mxCell id="NIFE1Up2-B-W9ti-cjIK-51" value="" style="endArrow=classic;html=1;rounded=0;fontSize=13;" parent="0gLZgzNLC9lTg95In6b3-72" source="0gLZgzNLC9lTg95In6b3-38" target="-ZTnhCfmlyASUnpzlvAA-64" edge="1">
          <mxGeometry width="50" height="50" relative="1" as="geometry">
            <mxPoint x="287.97432098765444" y="890" as="sourcePoint" />
            <mxPoint x="389" y="1225" as="targetPoint" />
          </mxGeometry>
        </mxCell>
        <mxCell id="NIFE1Up2-B-W9ti-cjIK-52" value="&lt;div&gt;&lt;font style=&quot;font-size: 9px;&quot;&gt;&lt;span style=&quot;font-size: x-small;&quot;&gt;SQL/TCP 5432&lt;/span&gt;&lt;/font&gt;&lt;/div&gt;&lt;font style=&quot;font-size: 9px;&quot;&gt;Gestión de&amp;nbsp;&lt;/font&gt;&lt;div&gt;&lt;font style=&quot;font-size: 9px;&quot;&gt;pedidos&lt;/font&gt;&lt;/div&gt;" style="edgeLabel;html=1;align=center;verticalAlign=middle;resizable=0;points=[];fontSize=13;" parent="NIFE1Up2-B-W9ti-cjIK-51" vertex="1" connectable="0">
          <mxGeometry x="0.0284" y="-1" relative="1" as="geometry">
            <mxPoint x="1" y="-12" as="offset" />
          </mxGeometry>
        </mxCell>
        <mxCell id="NIFE1Up2-B-W9ti-cjIK-61" value="" style="endArrow=classic;html=1;rounded=0;fontSize=13;" parent="0gLZgzNLC9lTg95In6b3-72" source="0gLZgzNLC9lTg95In6b3-40" target="-ZTnhCfmlyASUnpzlvAA-64" edge="1">
          <mxGeometry width="50" height="50" relative="1" as="geometry">
            <mxPoint x="151.64392857142866" y="860" as="sourcePoint" />
            <mxPoint x="150" y="1205" as="targetPoint" />
          </mxGeometry>
        </mxCell>
        <mxCell id="NIFE1Up2-B-W9ti-cjIK-62" value="&lt;div&gt;&lt;font style=&quot;&quot;&gt;&lt;font size=&quot;1&quot;&gt;SQL/TCP 5432&lt;/font&gt;&lt;/font&gt;&lt;/div&gt;&lt;font style=&quot;font-size: 9px;&quot;&gt;Registros de&amp;nbsp;&lt;/font&gt;&lt;div&gt;&lt;font style=&quot;font-size: 9px;&quot;&gt;transacciones&lt;/font&gt;&lt;/div&gt;" style="edgeLabel;html=1;align=center;verticalAlign=middle;resizable=0;points=[];fontSize=13;" parent="NIFE1Up2-B-W9ti-cjIK-61" vertex="1" connectable="0">
          <mxGeometry x="0.0284" y="-1" relative="1" as="geometry">
            <mxPoint x="5" y="-4" as="offset" />
          </mxGeometry>
        </mxCell>
        <mxCell id="NIFE1Up2-B-W9ti-cjIK-45" value="" style="endArrow=classic;html=1;rounded=0;fontSize=13;" parent="0gLZgzNLC9lTg95In6b3-72" source="0gLZgzNLC9lTg95In6b3-36" target="-ZTnhCfmlyASUnpzlvAA-64" edge="1">
          <mxGeometry width="50" height="50" relative="1" as="geometry">
            <mxPoint x="658.3819742914707" y="878.638140392499" as="sourcePoint" />
            <mxPoint x="629" y="1083" as="targetPoint" />
            <Array as="points">
              <mxPoint x="640" y="840" />
            </Array>
          </mxGeometry>
        </mxCell>
        <mxCell id="NIFE1Up2-B-W9ti-cjIK-46" value="&lt;div&gt;&lt;font style=&quot;font-size: 9px;&quot;&gt;&lt;span style=&quot;font-size: x-small;&quot;&gt;SQL/TCP 5432&lt;/span&gt;&lt;/font&gt;&lt;/div&gt;&lt;font style=&quot;font-size: 9px;&quot;&gt;Operaciones&lt;/font&gt;&lt;div&gt;&lt;font style=&quot;font-size: 9px;&quot;&gt;&amp;nbsp;&lt;span style=&quot;color: light-dark(rgb(0, 0, 0), rgb(255, 255, 255));&quot;&gt;CRUD&lt;/span&gt;&lt;/font&gt;&lt;div&gt;&lt;span style=&quot;color: light-dark(rgb(0, 0, 0), rgb(255, 255, 255));&quot;&gt;&lt;font style=&quot;font-size: 9px;&quot;&gt;&amp;nbsp;de usuarios&lt;/font&gt;&lt;/span&gt;&lt;/div&gt;&lt;/div&gt;" style="edgeLabel;html=1;align=center;verticalAlign=middle;resizable=0;points=[];fontSize=13;" parent="NIFE1Up2-B-W9ti-cjIK-45" vertex="1" connectable="0">
          <mxGeometry x="0.0284" y="-1" relative="1" as="geometry">
            <mxPoint x="11" y="-6" as="offset" />
          </mxGeometry>
        </mxCell>
        <mxCell id="0gLZgzNLC9lTg95In6b3-78" value="" style="endArrow=classic;html=1;rounded=0;fontSize=13;entryX=1.006;entryY=0.074;entryDx=0;entryDy=0;entryPerimeter=0;exitX=-0.008;exitY=0.168;exitDx=0;exitDy=0;exitPerimeter=0;" edge="1" parent="0gLZgzNLC9lTg95In6b3-72" source="-ZTnhCfmlyASUnpzlvAA-105" target="-ZTnhCfmlyASUnpzlvAA-40">
          <mxGeometry width="50" height="50" relative="1" as="geometry">
            <mxPoint x="250" y="1090" as="sourcePoint" />
            <mxPoint x="368" y="1407" as="targetPoint" />
          </mxGeometry>
        </mxCell>
        <mxCell id="0gLZgzNLC9lTg95In6b3-79" value="HTTPS 443" style="edgeLabel;html=1;align=center;verticalAlign=middle;resizable=0;points=[];fontSize=13;" vertex="1" connectable="0" parent="0gLZgzNLC9lTg95In6b3-78">
          <mxGeometry x="0.0284" y="-1" relative="1" as="geometry">
            <mxPoint x="1" y="14" as="offset" />
          </mxGeometry>
        </mxCell>
        <mxCell id="-ZTnhCfmlyASUnpzlvAA-28" value="" style="group;fillColor=#dae8fc;strokeColor=#6c8ebf;movable=1;resizable=1;rotatable=1;deletable=1;editable=1;locked=0;connectable=1;fontSize=13;" parent="1" vertex="1" connectable="0">
          <mxGeometry x="244" width="340" height="190" as="geometry" />
        </mxCell>
        <mxCell id="-ZTnhCfmlyASUnpzlvAA-9" value="Dispositivos cliente" style="verticalAlign=top;align=center;spacingTop=8;spacingLeft=2;spacingRight=12;shape=cube;size=10;direction=south;fontStyle=4;html=1;whiteSpace=wrap;container=0;fillColor=#dae8fc;strokeColor=#6c8ebf;fontSize=13;" parent="-ZTnhCfmlyASUnpzlvAA-28" vertex="1">
          <mxGeometry width="340" height="190" as="geometry" />
        </mxCell>
        <mxCell id="-ZTnhCfmlyASUnpzlvAA-26" value="&lt;strong&gt;Computadora&lt;/strong&gt;" style="verticalAlign=top;align=center;spacingTop=8;spacingLeft=2;spacingRight=12;shape=cube;size=10;direction=south;fontStyle=4;html=1;whiteSpace=wrap;movable=1;resizable=1;rotatable=1;deletable=1;editable=1;locked=0;connectable=1;container=0;fillColor=#e1d5e7;strokeColor=#9673a6;fontSize=13;" parent="-ZTnhCfmlyASUnpzlvAA-28" vertex="1">
          <mxGeometry x="170" y="50" width="140" height="110" as="geometry" />
        </mxCell>
        <mxCell id="-ZTnhCfmlyASUnpzlvAA-85" value="" style="group;fontSize=13;" parent="-ZTnhCfmlyASUnpzlvAA-28" vertex="1" connectable="0">
          <mxGeometry x="20" y="50" width="130" height="110" as="geometry" />
        </mxCell>
        <mxCell id="-ZTnhCfmlyASUnpzlvAA-11" value="&lt;strong&gt;Celular&lt;/strong&gt;" style="verticalAlign=top;align=center;spacingTop=8;spacingLeft=2;spacingRight=12;shape=cube;size=10;direction=south;fontStyle=4;html=1;whiteSpace=wrap;movable=1;resizable=1;rotatable=1;deletable=1;editable=1;locked=0;connectable=1;container=0;fillColor=#e1d5e7;strokeColor=#9673a6;fontSize=13;" parent="-ZTnhCfmlyASUnpzlvAA-85" vertex="1">
          <mxGeometry width="130" height="110" as="geometry" />
        </mxCell>
        <mxCell id="0gLZgzNLC9lTg95In6b3-23" value="&lt;span style=&quot;color: rgb(51, 51, 51);&quot;&gt;Navegador&amp;nbsp;&lt;/span&gt;&lt;div&gt;&lt;span style=&quot;color: rgb(51, 51, 51);&quot;&gt;Web Movil&lt;/span&gt;&lt;/div&gt;" style="html=1;dropTarget=0;whiteSpace=wrap;fillColor=#eeeeee;strokeColor=#36393d;align=left;fontSize=13;" vertex="1" parent="-ZTnhCfmlyASUnpzlvAA-85">
          <mxGeometry x="9.220000000000027" y="52.769999999999996" width="107" height="44.46" as="geometry" />
        </mxCell>
        <mxCell id="0gLZgzNLC9lTg95In6b3-24" value="" style="shape=module;jettyWidth=8;jettyHeight=4;fillColor=#eeeeee;strokeColor=#36393d;fontSize=13;" vertex="1" parent="0gLZgzNLC9lTg95In6b3-23">
          <mxGeometry x="1" width="20" height="20" relative="1" as="geometry">
            <mxPoint x="-27" y="7" as="offset" />
          </mxGeometry>
        </mxCell>
        <mxCell id="0gLZgzNLC9lTg95In6b3-25" value="&lt;span style=&quot;color: rgb(51, 51, 51);&quot;&gt;Navegador&amp;nbsp;&lt;/span&gt;&lt;div&gt;&lt;span style=&quot;color: rgb(51, 51, 51);&quot;&gt;Web&lt;/span&gt;&lt;/div&gt;" style="html=1;dropTarget=0;whiteSpace=wrap;fillColor=#eeeeee;strokeColor=#36393d;align=left;fontSize=13;" vertex="1" parent="-ZTnhCfmlyASUnpzlvAA-28">
          <mxGeometry x="180" y="100" width="107" height="44.46" as="geometry" />
        </mxCell>
        <mxCell id="0gLZgzNLC9lTg95In6b3-26" value="" style="shape=module;jettyWidth=8;jettyHeight=4;fillColor=#eeeeee;strokeColor=#36393d;fontSize=13;" vertex="1" parent="0gLZgzNLC9lTg95In6b3-25">
          <mxGeometry x="1" width="20" height="20" relative="1" as="geometry">
            <mxPoint x="-27" y="7" as="offset" />
          </mxGeometry>
        </mxCell>
        <mxCell id="NIFE1Up2-B-W9ti-cjIK-17" value="" style="endArrow=classic;html=1;rounded=0;entryX=0.015;entryY=0.062;entryDx=0;entryDy=0;entryPerimeter=0;exitX=0;exitY=0;exitDx=110;exitDy=10;exitPerimeter=0;fontSize=13;" parent="1" source="-ZTnhCfmlyASUnpzlvAA-26" target="-ZTnhCfmlyASUnpzlvAA-53" edge="1">
          <mxGeometry width="50" height="50" relative="1" as="geometry">
            <mxPoint x="576" y="180" as="sourcePoint" />
            <mxPoint x="536" y="260" as="targetPoint" />
            <Array as="points">
              <mxPoint x="590" y="220" />
            </Array>
          </mxGeometry>
        </mxCell>
        <mxCell id="NIFE1Up2-B-W9ti-cjIK-18" value="HTTPS:443&lt;div&gt;Cliente App&lt;/div&gt;" style="edgeLabel;html=1;align=center;verticalAlign=middle;resizable=0;points=[];fontSize=13;" parent="NIFE1Up2-B-W9ti-cjIK-17" vertex="1" connectable="0">
          <mxGeometry x="0.0284" y="-1" relative="1" as="geometry">
            <mxPoint x="1" y="-12" as="offset" />
          </mxGeometry>
        </mxCell>
        <mxCell id="NIFE1Up2-B-W9ti-cjIK-15" value="" style="endArrow=classic;html=1;rounded=0;entryX=-0.002;entryY=0.399;entryDx=0;entryDy=0;entryPerimeter=0;exitX=0.987;exitY=0.881;exitDx=0;exitDy=0;exitPerimeter=0;fontSize=13;" parent="1" source="-ZTnhCfmlyASUnpzlvAA-26" target="-ZTnhCfmlyASUnpzlvAA-53" edge="1">
          <mxGeometry width="50" height="50" relative="1" as="geometry">
            <mxPoint x="456" y="180" as="sourcePoint" />
            <mxPoint x="592" y="320" as="targetPoint" />
            <Array as="points">
              <mxPoint x="390" y="220" />
            </Array>
          </mxGeometry>
        </mxCell>
        <mxCell id="NIFE1Up2-B-W9ti-cjIK-16" value="HTTPS:443&lt;div&gt;Admin Pane&lt;/div&gt;" style="edgeLabel;html=1;align=center;verticalAlign=middle;resizable=0;points=[];fontSize=13;" parent="NIFE1Up2-B-W9ti-cjIK-15" vertex="1" connectable="0">
          <mxGeometry x="0.0284" y="-1" relative="1" as="geometry">
            <mxPoint x="2" y="-15" as="offset" />
          </mxGeometry>
        </mxCell>
        <mxCell id="NIFE1Up2-B-W9ti-cjIK-13" value="" style="endArrow=classic;html=1;rounded=0;entryX=0.011;entryY=0.792;entryDx=0;entryDy=0;entryPerimeter=0;exitX=0;exitY=0;exitDx=110;exitDy=70;exitPerimeter=0;fontSize=13;" parent="1" source="-ZTnhCfmlyASUnpzlvAA-11" target="-ZTnhCfmlyASUnpzlvAA-53" edge="1">
          <mxGeometry width="50" height="50" relative="1" as="geometry">
            <mxPoint x="346" y="190" as="sourcePoint" />
            <mxPoint x="482" y="330" as="targetPoint" />
            <Array as="points">
              <mxPoint x="228" y="260" />
            </Array>
          </mxGeometry>
        </mxCell>
        <mxCell id="NIFE1Up2-B-W9ti-cjIK-14" value="HTTPS:443&lt;div&gt;Cliente App&lt;/div&gt;" style="edgeLabel;html=1;align=center;verticalAlign=middle;resizable=0;points=[];fontSize=13;" parent="NIFE1Up2-B-W9ti-cjIK-13" vertex="1" connectable="0">
          <mxGeometry x="0.0284" y="-1" relative="1" as="geometry">
            <mxPoint x="-2" y="-11" as="offset" />
          </mxGeometry>
        </mxCell>
        <mxCell id="0gLZgzNLC9lTg95In6b3-4" value="" style="endArrow=classic;html=1;rounded=0;entryX=0.002;entryY=0.233;entryDx=0;entryDy=0;entryPerimeter=0;fontSize=13;" edge="1" parent="1" source="-ZTnhCfmlyASUnpzlvAA-26" target="-ZTnhCfmlyASUnpzlvAA-53">
          <mxGeometry width="50" height="50" relative="1" as="geometry">
            <mxPoint x="490" y="159" as="sourcePoint" />
            <mxPoint x="483" y="340" as="targetPoint" />
          </mxGeometry>
        </mxCell>
        <mxCell id="0gLZgzNLC9lTg95In6b3-5" value="&lt;div&gt;HTTPS:443&lt;/div&gt;&lt;div&gt;Vendedor&amp;nbsp;&lt;/div&gt;&lt;div&gt;Dashboard&lt;/div&gt;" style="edgeLabel;html=1;align=center;verticalAlign=middle;resizable=0;points=[];fontSize=13;" vertex="1" connectable="0" parent="0gLZgzNLC9lTg95In6b3-4">
          <mxGeometry x="0.0284" y="-1" relative="1" as="geometry">
            <mxPoint x="1" y="-20" as="offset" />
          </mxGeometry>
        </mxCell>
        <mxCell id="NIFE1Up2-B-W9ti-cjIK-43" value="" style="endArrow=classic;html=1;rounded=0;fontSize=13;" parent="1" source="0gLZgzNLC9lTg95In6b3-40" target="cPkvreHaspw4wVyvkUOK-43" edge="1">
          <mxGeometry width="50" height="50" relative="1" as="geometry">
            <mxPoint x="111.61736842105256" y="1150" as="sourcePoint" />
            <mxPoint x="126" y="1531" as="targetPoint" />
          </mxGeometry>
        </mxCell>
        <mxCell id="NIFE1Up2-B-W9ti-cjIK-44" value="HTTPS 443&amp;nbsp;" style="edgeLabel;html=1;align=center;verticalAlign=middle;resizable=0;points=[];fontSize=13;" parent="NIFE1Up2-B-W9ti-cjIK-43" vertex="1" connectable="0">
          <mxGeometry x="0.0284" y="-1" relative="1" as="geometry">
            <mxPoint x="5" y="-18" as="offset" />
          </mxGeometry>
        </mxCell>
        <mxCell id="0gLZgzNLC9lTg95In6b3-63" value="" style="endArrow=classic;html=1;rounded=0;fontSize=13;" edge="1" parent="1" source="0gLZgzNLC9lTg95In6b3-40" target="0gLZgzNLC9lTg95In6b3-52">
          <mxGeometry width="50" height="50" relative="1" as="geometry">
            <mxPoint x="323" y="1300" as="sourcePoint" />
            <mxPoint x="250" y="1555" as="targetPoint" />
          </mxGeometry>
        </mxCell>
        <mxCell id="0gLZgzNLC9lTg95In6b3-64" value="HTTPS 443" style="edgeLabel;html=1;align=center;verticalAlign=middle;resizable=0;points=[];fontSize=13;" vertex="1" connectable="0" parent="0gLZgzNLC9lTg95In6b3-63">
          <mxGeometry x="0.0284" y="-1" relative="1" as="geometry">
            <mxPoint x="1" y="14" as="offset" />
          </mxGeometry>
        </mxCell>
      </root>
    </mxGraphModel>
  </diagram>
</mxfile>
